<?xml version="1.0" encoding="utf-8"?>
<!-- Generator: Adobe Illustrator 19.1.0, SVG Export Plug-In . SVG Version: 6.00 Build 0)  -->
<svg version="1.1" id="Layer_1" xmlns="http://www.w3.org/2000/svg" xmlns:xlink="http://www.w3.org/1999/xlink" x="0px" y="0px"
	 viewBox="0 0 32 32" style="enable-background:new 0 0 32 32;" xml:space="preserve">
<style type="text/css">
	.st0{fill:#FFFFFF;}
</style>
<g id="_x36__6_">
	<g>
		<path class="st0" d="M24,18v-8c0-5.5-4.5-10-10-10S4,4.5,4,10v8l-4,8h9.1c0.5,2.3,2.5,4,4.9,4s4.4-1.7,4.9-4H28L24,18z M14,28
			c-1.3,0-2.4-0.8-2.8-2h5.6C16.4,27.2,15.3,28,14,28z M3,24l3-6v-8c0-4.4,3.6-8,8-8s8,3.6,8,8v8l3,6H3z"/>
	</g>
	<path class="alert-notification" fill="green" xmlns="http://www.w3.org/2000/svg" class="cls-1" d="M26,5a2,2,0,1,1,2-2A2,2,0,0,1,26,5Zm0-2h0Zm0,0h0Zm0,0h0Zm0,0h0Zm0,0h0Zm0,0h0Zm0,0h0Zm0,0h0Z"/>
	</g>
</g>
</svg>
