<?xml version="1.0" encoding="utf-8"?>
<!-- Generator: Adobe Illustrator 19.1.0, SVG Export Plug-In . SVG Version: 6.00 Build 0)  -->
<svg version="1.1" id="Line_5" xmlns="http://www.w3.org/2000/svg" xmlns:xlink="http://www.w3.org/1999/xlink" x="0px" y="0px"
	 viewBox="0 0 32 32" style="enable-background:new 0 0 32 32;" xml:space="preserve">
<style type="text/css">
	.st0{fill:#FFFFFF;}
</style>
<g id="_x37__17_">
	<g>
		<path class="st0" d="M18,16.4c1.3-1.7,2-3.9,2-6.4c0-5.5-4-10-9-10C6,0,2,4.5,2,10c0,2.4,0.8,4.6,2,6.4c-2.3,0.8-4,3-4,5.6v4
			c0,3.3,2.7,6,6,6h10c3.3,0,6-2.7,6-6v-4C22,19.4,20.3,17.2,18,16.4z M4,10c0-4.4,3.1-8,7-8c3.9,0,7,3.6,7,8s-3.1,8-7,8
			C7.1,18,4,14.4,4,10z M20,25.5c0,2.5-2.2,4.5-4.9,4.5H6.9C4.2,30,2,28,2,25.5v-3c0-2.1,1.6-3.9,3.8-4.4C7.2,19.3,9,20,11,20
			c2,0,3.8-0.7,5.2-1.9c2.2,0.5,3.8,2.2,3.8,4.4V25.5z M23,8h8c0.6,0,1-0.4,1-1c0-0.6-0.4-1-1-1h-8c-0.6,0-1,0.4-1,1
			C22,7.6,22.4,8,23,8z M31,24h-6c-0.6,0-1,0.4-1,1c0,0.6,0.4,1,1,1h6c0.6,0,1-0.4,1-1C32,24.4,31.6,24,31,24z M31,12h-8
			c-0.6,0-1,0.4-1,1c0,0.6,0.4,1,1,1h8c0.6,0,1-0.4,1-1C32,12.4,31.6,12,31,12z M31,18h-6c-0.6,0-1,0.4-1,1c0,0.6,0.4,1,1,1h6
			c0.6,0,1-0.4,1-1C32,18.4,31.6,18,31,18z"/>
	</g>
</g>
</svg>
