<?xml version="1.0" encoding="utf-8"?>
<!-- Generator: Adobe Illustrator 19.1.0, SVG Export Plug-In . SVG Version: 6.00 Build 0)  -->
<svg version="1.1" id="Line_12" xmlns="http://www.w3.org/2000/svg" xmlns:xlink="http://www.w3.org/1999/xlink" x="0px" y="0px"
	 viewBox="0 0 32 32" style="enable-background:new 0 0 32 32;" xml:space="preserve">
<style type="text/css">
	.st0{fill:#FFFFFF;}
</style>
<g id="_x35__10_">
	<g>
		<path class="st0" d="M14,0h-2c-1.1,0-2,0.9-2,2v28c0,1.1,0.9,2,2,2h2c1.1,0,2-0.9,2-2V2C16,0.9,15.1,0,14,0z M14,29
			c0,0.6-0.4,1-1,1c-0.6,0-1-0.4-1-1V3c0-0.6,0.4-1,1-1c0.6,0,1,0.4,1,1V29z M4,9H2c-1.1,0-2,0.9-2,2v19c0,1.1,0.9,2,2,2h2
			c1.1,0,2-0.9,2-2V11C6,9.9,5.1,9,4,9z M4,29c0,0.6-0.4,1-1,1c-0.6,0-1-0.4-1-1V12c0-0.6,0.4-1,1-1c0.6,0,1,0.4,1,1V29z M24,16h-2
			c-1.1,0-2,0.9-2,2v12c0,1.1,0.9,2,2,2h2c1.1,0,2-0.9,2-2V18C26,16.9,25.1,16,24,16z M24,29c0,0.6-0.4,1-1,1c-0.6,0-1-0.4-1-1V19
			c0-0.6,0.4-1,1-1c0.6,0,1,0.4,1,1V29z"/>
	</g>
</g>
</svg>
